<?xml version="1.0" standalone="no"?>
<!DOCTYPE svg PUBLIC "-//W3C//DTD SVG 20010904//EN"
 "http://www.w3.org/TR/2001/REC-SVG-20010904/DTD/svg10.dtd">
<svg version="1.0" xmlns="http://www.w3.org/2000/svg"
 width="307.000000pt" height="310.000000pt" viewBox="0 0 307.000000 310.000000"
 preserveAspectRatio="xMidYMid meet">

<g transform="translate(0.000000,310.000000) scale(0.100000,-0.100000)"
fill="#000000" stroke="none">
<path d="M1389 3068 c-14 -11 -199 -459 -199 -480 0 -5 27 -8 61 -8 l61 0 -7
-27 c-10 -43 -54 -101 -85 -111 -17 -7 -65 -56 -128 -134 -55 -67 -125 -147
-156 -177 -70 -66 -78 -82 -116 -220 -34 -127 -35 -147 -11 -290 19 -116 14
-215 -12 -255 -24 -35 -122 -45 -238 -22 -47 9 -119 17 -160 17 -79 2 -73 4
34 14 37 4 67 11 67 16 0 5 -43 9 -96 9 -104 0 -121 15 -24 22 94 7 101 28 10
29 l-75 1 53 12 c75 19 75 26 2 26 -79 0 -70 18 12 27 49 5 57 3 62 -13 4 -11
22 -37 42 -59 32 -37 35 -39 48 -22 24 31 27 100 11 207 -18 122 -18 140 -5
140 17 0 28 -43 41 -154 l12 -105 99 -3 100 -3 -6 55 c-3 30 -9 96 -12 145 -7
119 -9 123 -37 96 -19 -17 -35 -21 -91 -21 -66 0 -67 1 -77 30 -15 41 -55 42
-70 3 -6 -16 -24 -43 -41 -60 -29 -30 -32 -39 -36 -117 l-4 -84 -37 -7 c-105
-18 -121 -37 -121 -139 0 -44 5 -67 15 -76 8 -7 60 -18 114 -25 126 -17 162
-34 76 -36 -70 -1 -118 -13 -95 -22 8 -4 114 -8 235 -9 188 -3 225 -6 252 -21
39 -21 63 -63 63 -112 0 -39 -12 -49 -57 -43 l-28 4 35 16 35 16 -51 1 c-67 1
-115 11 -108 22 3 5 29 9 59 9 30 0 57 5 60 10 4 6 -20 10 -64 10 -38 0 -73 5
-76 10 -4 6 23 10 72 11 72 1 74 2 33 10 -25 4 -67 9 -95 10 -48 2 -49 3 -10
6 22 3 44 9 50 14 5 5 -78 10 -220 11 -314 4 -323 3 -345 -17 -26 -23 -35 -76
-22 -126 10 -39 10 -40 -26 -58 l-36 -18 25 -16 c64 -42 121 -46 974 -62 816
-15 819 -15 861 5 50 25 72 19 70 -18 -4 -76 28 -782 36 -782 36 0 373 198
394 231 3 5 -41 171 -97 369 -55 199 -100 363 -98 364 2 2 16 6 30 9 l26 7
103 -333 c56 -182 106 -336 110 -340 17 -19 270 279 270 318 0 7 -75 138 -167
291 -142 238 -168 288 -179 344 -15 75 -28 115 -79 233 -33 76 -39 85 -55 77
-16 -9 -20 -4 -29 41 -13 57 -13 105 -2 134 5 11 3 30 -3 44 -9 21 -15 23 -63
18 -48 -5 -53 -3 -69 20 -36 56 -227 254 -259 269 -19 9 -45 31 -59 49 -14 18
-66 77 -116 130 -49 54 -90 101 -90 106 0 25 33 1 107 -78 46 -48 85 -84 88
-81 3 3 -30 45 -72 93 -43 49 -69 85 -58 81 11 -5 46 -17 77 -28 l58 -20 230
192 c264 220 253 192 105 261 -66 31 -281 109 -300 109 -2 0 -74 -96 -161
-212 -86 -117 -160 -216 -164 -221 -3 -4 -20 -2 -37 5 l-31 13 149 210 c82
116 149 213 149 216 0 12 -65 19 -230 25 -130 5 -168 3 -181 -8z m145 -487
c17 -10 49 -22 71 -26 38 -7 39 -8 15 -17 -30 -11 -40 -25 -40 -60 0 -35 187
-269 238 -298 21 -12 64 -57 99 -103 68 -92 123 -172 123 -181 0 -12 -73 -6
-84 7 -6 8 -77 101 -158 208 -80 107 -169 223 -197 259 -28 36 -74 96 -101
135 l-50 69 22 13 c29 16 25 16 62 -6z m-96 -342 c18 -16 37 -29 43 -29 7 0
26 15 44 34 29 31 31 32 27 11 -12 -65 -84 -86 -134 -38 -26 25 -28 25 -28 6
0 -31 29 -50 100 -67 l65 -15 28 29 c28 31 36 25 16 -12 -13 -24 -67 -48 -107
-48 -46 0 -93 39 -111 90 l-16 45 -3 -33 c-4 -40 17 -75 61 -103 26 -16 45
-19 101 -17 l69 4 41 -46 c74 -83 310 -320 318 -320 5 0 19 9 31 21 13 12 31
19 45 16 26 -5 27 1 6 32 -14 19 -14 25 -3 32 46 29 99 -9 99 -70 0 -22 3 -46
6 -55 11 -28 -41 -20 -60 9 -19 29 -66 34 -86 10 -18 -22 -3 -64 30 -83 31
-18 43 -45 99 -230 20 -65 36 -100 43 -96 17 11 3 131 -25 214 -14 41 -22 78
-18 83 16 16 40 -33 71 -143 40 -142 46 -155 56 -115 5 19 1 53 -11 95 -30
109 -39 159 -31 167 14 15 37 -32 78 -161 27 -88 43 -124 49 -115 15 24 10 66
-21 159 -31 94 -36 120 -21 120 16 0 29 -25 51 -100 30 -101 60 -171 71 -164
15 9 10 40 -22 139 -38 121 -33 156 8 50 57 -148 57 -143 5 -229 l-46 -76 -99
0 c-54 0 -106 -4 -116 -9 -10 -6 -30 -28 -45 -50 -15 -22 -43 -50 -62 -63 -19
-13 -34 -27 -34 -32 0 -5 48 -7 110 -4 61 3 110 2 110 -2 0 -12 -88 -90 -102
-90 -7 0 -24 9 -38 19 -22 17 -27 18 -51 5 -24 -12 -37 -11 -111 7 -45 12
-112 37 -147 56 -56 30 -71 34 -110 29 -25 -4 -59 -6 -75 -6 -17 -1 -44 -14
-71 -35 -23 -19 -53 -35 -66 -35 -13 0 -44 -9 -68 -20 -24 -11 -55 -20 -70
-19 -15 0 -20 3 -11 6 50 18 79 37 89 59 18 40 14 44 -48 44 -48 0 -60 -3 -64
-17 -3 -10 -5 4 -6 30 -1 39 -7 54 -30 78 -28 28 -33 29 -128 30 -54 0 -107 4
-118 9 -36 16 186 11 230 -5 22 -8 57 -15 77 -15 20 0 40 -4 43 -10 4 -6 -8
-10 -30 -10 -22 0 -34 -4 -30 -10 7 -12 61 -12 90 -1 18 7 18 9 -7 34 -33 33
-56 37 -261 45 -157 7 -167 8 -155 24 10 14 36 19 125 24 102 6 112 9 117 28
8 28 7 135 0 164 -8 30 -53 52 -105 52 l-42 0 7 48 c17 129 17 137 7 122 -5
-9 -17 -56 -25 -105 -20 -114 -38 -177 -51 -175 -15 1 -7 68 21 173 14 50 38
142 53 202 16 61 32 118 36 127 4 10 44 43 89 74 84 59 156 122 156 137 0 5
-55 -29 -122 -76 -125 -85 -168 -112 -168 -103 0 3 64 53 143 112 78 58 144
113 146 122 2 10 -13 4 -45 -19 -27 -19 -102 -73 -168 -119 -137 -98 -166
-129 -190 -208 -21 -64 -45 -114 -46 -93 0 29 42 169 61 200 10 17 97 89 196
163 213 157 230 172 240 212 7 29 8 27 13 -23 5 -44 12 -59 38 -82z m589 -171
c62 -62 113 -116 113 -120 0 -4 -8 -8 -17 -8 -9 0 -24 -7 -33 -15 -15 -14 -22
-8 -72 62 -66 92 -118 174 -118 185 0 18 18 3 127 -104z m228 -270 c3 -24 9
-58 12 -75 5 -32 4 -33 -30 -33 -31 0 -35 3 -41 31 -3 17 -6 51 -6 75 0 42 1
44 29 44 27 0 30 -4 36 -42z m-1601 -80 c3 -13 6 -35 6 -50 0 -23 -4 -28 -25
-28 -27 0 -30 4 -40 63 -6 36 -5 37 23 37 22 0 31 -6 36 -22z m497 -205 c19
-16 33 -107 23 -147 l-6 -26 -157 2 -156 1 135 6 c136 6 183 17 144 32 -10 4
-41 8 -69 8 -72 2 -37 20 40 22 l60 2 -64 8 c-81 10 -90 19 -18 19 31 0 59 5
62 10 4 6 -12 10 -42 10 -54 0 -86 13 -58 24 9 3 35 6 56 6 24 0 38 4 34 10
-3 6 -26 10 -51 10 -42 0 -59 12 -31 23 19 8 80 -4 98 -20z m-711 -355 c91 -5
168 -12 171 -16 4 -4 5 -22 2 -39 l-5 -33 -139 0 c-126 0 -141 2 -159 20 -11
11 -20 29 -20 40 0 24 -9 25 -35 6 -17 -13 -18 -17 -6 -40 17 -30 9 -45 -14
-26 -31 25 -9 118 25 104 8 -3 89 -10 180 -16z"/>
<path d="M1875 1668 c-18 -14 -52 -72 -98 -168 -95 -199 -96 -200 -163 -200
-30 0 -54 -4 -54 -9 0 -26 230 -174 304 -196 85 -26 164 12 208 98 17 35 20
53 15 117 -5 67 -53 244 -76 279 -6 10 -19 -5 -49 -55 -46 -80 -144 -220 -174
-249 -11 -11 13 43 53 120 147 279 143 266 89 280 -19 4 -34 0 -55 -17z"/>
<path d="M1155 3031 c-112 -29 -192 -57 -210 -73 -9 -8 -66 -438 -59 -447 1
-1 31 6 66 18 35 11 82 23 104 27 23 3 46 9 53 13 6 4 46 104 90 222 44 117
84 226 90 242 13 35 9 35 -134 -2z"/>
<path d="M810 2898 c-19 -12 -77 -48 -128 -82 -76 -49 -92 -64 -88 -81 2 -11
14 -92 27 -180 12 -88 23 -161 24 -162 1 -2 42 19 91 45 l89 47 17 175 c19
197 21 260 11 259 -5 0 -24 -10 -43 -21z"/>
<path d="M2157 2628 l-228 -181 88 -57 c48 -31 112 -78 142 -103 30 -26 60
-47 66 -47 11 0 335 146 343 155 8 8 -52 221 -79 283 -34 75 -74 132 -92 131
-7 0 -115 -82 -240 -181z"/>
<path d="M2505 2720 c-3 -5 5 -35 19 -67 60 -144 95 -317 105 -513 l6 -134
205 -133 c112 -72 206 -131 207 -129 2 1 -4 39 -12 85 -56 320 -201 598 -428
824 -78 77 -91 85 -102 67z"/>
<path d="M460 2633 c-125 -128 -118 -100 -54 -249 31 -71 57 -130 58 -131 1
-1 22 14 46 34 25 19 55 43 67 52 l21 17 -29 164 c-15 90 -30 170 -31 177 -2
8 -37 -21 -78 -64z"/>
<path d="M247 2370 l-58 -91 66 -84 c36 -47 69 -85 73 -85 10 0 92 97 92 109
0 10 -107 241 -112 241 -2 0 -29 -41 -61 -90z"/>
<path d="M2465 2258 c-60 -26 -127 -54 -148 -63 l-38 -15 55 -68 c65 -82 112
-155 155 -239 31 -63 55 -79 65 -45 26 88 43 343 29 428 l-8 50 -110 -48z"/>
<path d="M151 2198 c-5 -13 -20 -51 -34 -85 l-25 -62 54 -41 c30 -22 60 -43
68 -46 14 -5 76 73 76 96 0 11 -118 160 -127 160 -2 0 -7 -10 -12 -22z"/>
<path d="M56 1924 c-10 -42 -14 -79 -10 -83 11 -10 96 -43 99 -39 1 2 14 26
29 55 l26 52 -52 39 c-29 21 -58 41 -64 45 -7 4 -17 -22 -28 -69z"/>
<path d="M2602 1854 l-22 -116 26 -32 c77 -91 407 -456 413 -456 21 0 50 386
33 430 -7 17 -74 67 -215 158 -113 72 -207 132 -209 132 -2 0 -13 -52 -26
-116z"/>
<path d="M25 1777 c-2 -7 -6 -40 -9 -74 -5 -55 -4 -63 12 -63 9 0 27 -3 38 -6
19 -5 24 2 42 55 22 66 23 65 -38 86 -31 11 -42 12 -45 2z"/>
<path d="M2545 1658 c-2 -7 -18 -55 -34 -106 l-31 -92 196 -310 c108 -171 200
-310 204 -310 10 0 81 163 110 253 l22 68 -34 37 c-18 21 -120 135 -227 255
-106 119 -195 217 -198 217 -2 0 -5 -6 -8 -12z"/>
<path d="M10 1519 c0 -67 1 -70 22 -67 20 3 25 12 34 65 6 35 9 65 6 68 -3 3
-18 5 -34 5 l-28 0 0 -71z"/>
<path d="M578 1425 l-15 -55 97 0 c108 0 106 -1 126 83 l6 27 -99 0 -100 0
-15 -55z"/>
<path d="M1903 826 c-40 -24 -111 -60 -157 -82 -73 -34 -86 -43 -91 -69 -9
-43 -135 -606 -142 -632 -5 -22 -2 -23 55 -23 85 0 199 17 325 47 l107 26 0
141 c0 220 -13 636 -19 635 -3 0 -39 -20 -78 -43z"/>
<path d="M235 711 c-3 -5 21 -44 52 -85 l58 -75 47 46 c26 26 45 50 40 53 -10
10 -167 70 -180 70 -6 0 -13 -4 -17 -9z"/>
<path d="M1505 649 c-70 -22 -240 -56 -308 -62 -26 -2 -49 -6 -50 -8 -21 -26
-226 -433 -222 -440 16 -25 291 -96 440 -113 l50 -6 78 302 c42 167 80 313 83
326 7 26 7 26 -71 1z"/>
<path d="M478 556 l-67 -74 52 -49 c73 -69 203 -164 292 -213 42 -23 77 -40
79 -39 1 2 14 24 28 49 14 25 52 92 85 150 33 58 70 123 81 146 l21 41 -167
12 c-152 12 -283 30 -322 45 -10 4 -37 -18 -82 -68z"/>
</g>
</svg>
